<svg width="30" height="30" viewBox="0 0 30 30" fill="none" xmlns="http://www.w3.org/2000/svg">
<path fill-rule="evenodd" clip-rule="evenodd" d="M6.7925 20.8215L12.0925 15.5215L15.3425 18.7715C15.7525 19.1815 16.4125 19.1615 16.7925 18.7315L23.9625 10.6615C24.3125 10.2715 24.2925 9.67153 23.9225 9.29153C23.5225 8.89153 22.8525 8.90153 22.4725 9.33153L16.0825 16.5115L12.7925 13.2215C12.6057 13.0343 12.352 12.929 12.0875 12.929C11.823 12.929 11.5693 13.0343 11.3825 13.2215L5.2925 19.3215C4.9025 19.7115 4.9025 20.3415 5.2925 20.7315L5.3825 20.8215C5.7725 21.2115 6.4125 21.2115 6.7925 20.8215Z" fill="#33BFFF"/>
</svg>
