<svg width="60" height="61" viewBox="0 0 60 61" fill="none" xmlns="http://www.w3.org/2000/svg">
<g filter="url(#filter0_d_939_5010)">
<rect x="5" y="3.5" width="50" height="50" rx="25" fill="white"/>
<path fill-rule="evenodd" clip-rule="evenodd" d="M22 24.5H26V20.5H22V24.5ZM28 36.5H32V32.5H28V36.5ZM22 36.5H26V32.5H22V36.5ZM22 30.5H26V26.5H22V30.5ZM28 30.5H32V26.5H28V30.5ZM34 20.5V24.5H38V20.5H34ZM28 24.5H32V20.5H28V24.5ZM34 30.5H38V26.5H34V30.5ZM34 36.5H38V32.5H34V36.5Z" fill="#C3CAD9"/>
</g>
<defs>
<filter id="filter0_d_939_5010" x="0" y="0.5" width="60" height="60" filterUnits="userSpaceOnUse" color-interpolation-filters="sRGB">
<feFlood flood-opacity="0" result="BackgroundImageFix"/>
<feColorMatrix in="SourceAlpha" type="matrix" values="0 0 0 0 0 0 0 0 0 0 0 0 0 0 0 0 0 0 127 0" result="hardAlpha"/>
<feOffset dy="2"/>
<feGaussianBlur stdDeviation="2.5"/>
<feColorMatrix type="matrix" values="0 0 0 0 0.14902 0 0 0 0 0.2 0 0 0 0 0.301961 0 0 0 0.03 0"/>
<feBlend mode="normal" in2="BackgroundImageFix" result="effect1_dropShadow_939_5010"/>
<feBlend mode="normal" in="SourceGraphic" in2="effect1_dropShadow_939_5010" result="shape"/>
</filter>
</defs>
</svg>
