<svg width="50" height="51" viewBox="0 0 50 51" fill="none" xmlns="http://www.w3.org/2000/svg">
<rect y="0.5" width="50" height="50" rx="25" fill="#8833FF" fill-opacity="0.1"/>
<path fill-rule="evenodd" clip-rule="evenodd" d="M24.5865 35C25.6865 35 26.5865 34.1 26.5865 33H22.5865C22.5865 34.1 23.4765 35 24.5865 35ZM30.5865 29V24C30.5865 20.93 28.9465 18.36 26.0865 17.68V17C26.0865 16.17 25.4165 15.5 24.5865 15.5C23.7565 15.5 23.0865 16.17 23.0865 17V17.68C20.2165 18.36 18.5865 20.92 18.5865 24V29L17.2965 30.29C16.6665 30.92 17.1065 32 17.9965 32H31.1665C32.0565 32 32.5065 30.92 31.8765 30.29L30.5865 29Z" fill="#8833FF"/>
</svg>
