<svg width="30" height="30" viewBox="0 0 30 30" fill="none" xmlns="http://www.w3.org/2000/svg">
<path fill-rule="evenodd" clip-rule="evenodd" d="M9.79 10.2946H19.79V12.0846C19.79 12.5346 20.33 12.7546 20.64 12.4346L23.43 9.64462C23.63 9.44462 23.63 9.13462 23.43 8.93462L20.64 6.14462C20.33 5.83462 19.79 6.05462 19.79 6.50462V8.29462H8.79C8.24 8.29462 7.79 8.74462 7.79 9.29462V13.2946C7.79 13.8446 8.24 14.2946 8.79 14.2946C9.34 14.2946 9.79 13.8446 9.79 13.2946V10.2946ZM19.79 20.2946H9.79V18.5046C9.79 18.0546 9.25 17.8346 8.94 18.1546L6.15 20.9446C5.95 21.1446 5.95 21.4546 6.15 21.6546L8.94 24.4446C9.25 24.7546 9.79 24.5346 9.79 24.0846V22.2946H20.79C21.34 22.2946 21.79 21.8446 21.79 21.2946V17.2946C21.79 16.7446 21.34 16.2946 20.79 16.2946C20.24 16.2946 19.79 16.7446 19.79 17.2946V20.2946Z" fill="#C3CAD9"/>
</svg>
