<svg width="30" height="30" viewBox="0 0 30 30" fill="none" xmlns="http://www.w3.org/2000/svg">
<path fill-rule="evenodd" clip-rule="evenodd" d="M15 5C9.48 5 5 9.48 5 15C5 20.52 9.48 25 15 25C20.52 25 25 20.52 25 15C25 9.48 20.52 5 15 5ZM15 23C10.59 23 7 19.41 7 15C7 10.59 10.59 7 15 7C19.41 7 23 10.59 23 15C23 19.41 19.41 23 15 23ZM18.88 11.29L13 17.17L11.12 15.29C10.9332 15.1027 10.6795 14.9975 10.415 14.9975C10.1505 14.9975 9.89683 15.1027 9.71 15.29C9.32 15.68 9.32 16.31 9.71 16.7L12.3 19.29C12.69 19.68 13.32 19.68 13.71 19.29L20.3 12.7C20.69 12.31 20.69 11.68 20.3 11.29C19.91 10.9 19.27 10.9 18.88 11.29Z" fill="#C3CAD9"/>
</svg>
