<svg width="30" height="30" viewBox="0 0 30 30" fill="none" xmlns="http://www.w3.org/2000/svg">
<path fill-rule="evenodd" clip-rule="evenodd" d="M14.99 5C9.47 5 5 9.48 5 15C5 20.52 9.47 25 14.99 25C20.52 25 25 20.52 25 15C25 9.48 20.52 5 14.99 5ZM21.92 11H18.97C18.65 9.75 18.19 8.55 17.59 7.44C19.43 8.07 20.96 9.35 21.92 11ZM15 7.04C15.83 8.24 16.48 9.57 16.91 11H13.09C13.52 9.57 14.17 8.24 15 7.04ZM7.26 17C7.1 16.36 7 15.69 7 15C7 14.31 7.1 13.64 7.26 13H10.64C10.56 13.66 10.5 14.32 10.5 15C10.5 15.68 10.56 16.34 10.64 17H7.26ZM8.08 19H11.03C11.35 20.25 11.81 21.45 12.41 22.56C10.57 21.93 9.04 20.66 8.08 19ZM11.03 11H8.08C9.04 9.34 10.57 8.07 12.41 7.44C11.81 8.55 11.35 9.75 11.03 11ZM15 22.96C14.17 21.76 13.52 20.43 13.09 19H16.91C16.48 20.43 15.83 21.76 15 22.96ZM17.34 17H12.66C12.57 16.34 12.5 15.68 12.5 15C12.5 14.32 12.57 13.65 12.66 13H17.34C17.43 13.65 17.5 14.32 17.5 15C17.5 15.68 17.43 16.34 17.34 17ZM17.59 22.56C18.19 21.45 18.65 20.25 18.97 19H21.92C20.96 20.65 19.43 21.93 17.59 22.56ZM19.36 17C19.44 16.34 19.5 15.68 19.5 15C19.5 14.32 19.44 13.66 19.36 13H22.74C22.9 13.64 23 14.31 23 15C23 15.69 22.9 16.36 22.74 17H19.36Z" fill="#C3CAD9"/>
</svg>
