<svg width="30" height="31" viewBox="0 0 30 31" fill="none" xmlns="http://www.w3.org/2000/svg">
<path fill-rule="evenodd" clip-rule="evenodd" d="M15 19.5C14.4477 19.5 14 19.9477 14 20.5C14 21.0523 14.4477 21.5 15 21.5C15.5523 21.5 16 21.0523 16 20.5C16 19.9477 15.5523 19.5 15 19.5ZM10 14.5C9.44772 14.5 9 14.9477 9 15.5C9 16.0523 9.44772 16.5 10 16.5C10.5523 16.5 11 16.0523 11 15.5C11 14.9477 10.5523 14.5 10 14.5ZM20 14.5C19.4477 14.5 19 14.9477 19 15.5C19 16.0523 19.4477 16.5 20 16.5C20.5523 16.5 21 16.0523 21 15.5C21 14.9477 20.5523 14.5 20 14.5ZM15 6.5C14.45 6.5 14 6.95 14 7.5V9.5C14 10.05 14.45 10.5 15 10.5C15.55 10.5 16 10.05 16 9.5V8.58C19.31 9.06 21.87 11.83 22 15.24C22.14 19.09 18.97 22.44 15.12 22.5C11.19 22.56 8 19.41 8 15.5C8 13.82 8.59 12.28 9.58 11.08L14.29 15.8C14.68 16.19 15.31 16.19 15.7 15.8C16.09 15.41 16.09 14.78 15.7 14.39L10.26 8.96C9.88 8.58 9.26 8.57 8.86 8.94C7.1 10.57 6 12.9 6 15.5C6 20.54 10.14 24.62 15.21 24.5C19.91 24.39 23.84 20.49 23.99 15.79C24.16 10.69 20.07 6.5 15 6.5Z" fill="#C3CAD9"/>
</svg>
